<svg width="152" height="192" viewBox="0 0 152 192" fill="none" xmlns="http://www.w3.org/2000/svg">
<g opacity="0.15" clip-path="url(#clip0_718_11701)">
<path d="M129.755 116.322C129.755 118.356 129.353 120.371 128.572 122.249C127.791 124.128 126.647 125.833 125.205 127.268C123.763 128.703 122.051 129.838 120.169 130.61C118.286 131.381 116.27 131.772 114.236 131.762C112.205 131.773 110.193 131.38 108.315 130.608C106.436 129.836 104.73 128.699 103.294 127.263C101.858 125.827 100.722 124.121 99.9494 122.243C99.1772 120.365 98.785 118.352 98.7956 116.322C98.7851 114.288 99.1767 112.271 99.9479 110.389C100.719 108.506 101.855 106.795 103.289 105.352C104.724 103.91 106.43 102.766 108.308 101.985C110.187 101.204 112.201 100.802 114.236 100.802C118.352 100.802 122.299 102.437 125.209 105.348C128.12 108.258 129.755 112.206 129.755 116.322Z" fill="#DD3F24"/>
<path d="M108.321 10.9618C108.321 13.4867 107.318 15.9082 105.532 17.6936C103.747 19.4789 101.326 20.4819 98.8009 20.4819C97.544 20.4925 96.2975 20.2539 95.1332 19.7802C93.969 19.3065 92.91 18.6071 92.0175 17.722C91.125 16.8369 90.4167 15.7839 89.9333 14.6236C89.4499 13.4633 89.2011 12.2188 89.2012 10.9618C89.2011 9.70487 89.4499 8.46033 89.9333 7.30006C90.4167 6.13978 91.125 5.08672 92.0175 4.20165C92.91 3.31658 93.969 2.61698 95.1332 2.14329C96.2975 1.66959 97.544 1.43118 98.8009 1.44174C101.326 1.44174 103.747 2.44473 105.532 4.23009C107.318 6.01545 108.321 8.43695 108.321 10.9618Z" fill="#DD3F24"/>
<path d="M63.923 44.3193C63.9231 45.6393 63.6618 46.9463 63.1542 48.1648C62.6467 49.3833 61.9028 50.4892 60.9658 51.4188C60.0287 52.3485 58.9171 53.0834 57.6946 53.5812C56.4721 54.079 55.163 54.3299 53.8431 54.3193C51.191 54.3193 48.6475 53.2657 46.7722 51.3904C44.8968 49.515 43.8433 46.9715 43.8433 44.3193C43.8432 41.6597 44.8942 39.1078 46.7673 37.2197C48.6404 35.3317 51.1836 34.2604 53.8431 34.2393C56.5164 34.2393 59.0803 35.3012 60.9707 37.1915C62.861 39.0819 63.923 41.6459 63.923 44.3193Z" fill="#DD3F24"/>
<path d="M31.1235 83.1215C31.1235 85.413 30.2133 87.6106 28.593 89.2309C26.9727 90.8513 24.7752 91.7615 22.4837 91.7615C20.1923 91.7615 17.9945 90.8513 16.3742 89.2309C14.7539 87.6106 13.8438 85.413 13.8438 83.1215C13.8438 80.83 14.7539 78.6323 16.3742 77.012C17.9945 75.3917 20.1923 74.4814 22.4837 74.4814C24.7752 74.4814 26.9727 75.3917 28.593 77.012C30.2133 78.6323 31.1235 80.83 31.1235 83.1215Z" fill="#DD3F24"/>
<path d="M13.7595 69.3615C13.7595 71.1862 13.0349 72.9361 11.7447 74.2264C10.4545 75.5167 8.70443 76.2415 6.87977 76.2415C5.06156 76.2208 3.3238 75.4892 2.03805 74.2034C0.752301 72.9177 0.0207816 71.1797 0 69.3615C0.0207816 67.5432 0.752301 65.8053 2.03805 64.5195C3.3238 63.2338 5.06156 62.5022 6.87977 62.4814C8.70443 62.4814 10.4545 63.2062 11.7447 64.4965C13.0349 65.7867 13.7595 67.5368 13.7595 69.3615Z" fill="#DD3F24"/>
<path d="M147.04 158.561C147.04 160.831 146.138 163.009 144.532 164.614C142.927 166.219 140.75 167.121 138.48 167.121C136.21 167.121 134.032 166.219 132.427 164.614C130.822 163.009 129.92 160.831 129.92 158.561C129.92 156.291 130.822 154.113 132.427 152.508C134.032 150.903 136.21 150.001 138.48 150.001C140.75 150.001 142.927 150.903 144.532 152.508C146.138 154.113 147.04 156.291 147.04 158.561Z" fill="#DD3F24"/>
<path d="M22.7219 117.121C22.7327 118.049 22.5578 118.969 22.2078 119.828C21.8578 120.687 21.3397 121.467 20.6839 122.123C20.028 122.779 19.2477 123.297 18.3888 123.647C17.5298 123.997 16.6095 124.172 15.682 124.161C14.7508 124.172 13.8267 123.997 12.9633 123.648C12.0999 123.299 11.3145 122.782 10.6523 122.128C9.9901 121.473 9.46424 120.693 9.10546 119.834C8.74668 118.974 8.56195 118.052 8.56201 117.121C8.56201 115.233 9.31219 113.422 10.6474 112.086C11.9827 110.751 13.7937 110.001 15.682 110.001C16.6133 110.001 17.5352 110.186 18.3946 110.544C19.254 110.903 20.0338 111.429 20.6885 112.091C21.3433 112.753 21.86 113.539 22.209 114.402C22.5581 115.266 22.7325 116.19 22.7219 117.121Z" fill="#DD3F24"/>
<path d="M138.876 184.562C138.855 186.437 138.096 188.227 136.763 189.545C135.43 190.864 133.631 191.603 131.756 191.603C129.889 191.603 128.099 190.861 126.778 189.54C125.458 188.22 124.717 186.43 124.717 184.562C124.706 183.631 124.88 182.707 125.229 181.844C125.578 180.98 126.095 180.195 126.75 179.533C127.405 178.87 128.184 178.345 129.044 177.986C129.903 177.627 130.825 177.442 131.756 177.442C133.645 177.442 135.456 178.193 136.791 179.528C138.126 180.863 138.876 182.674 138.876 184.562Z" fill="#DD3F24"/>
<path d="M39.4393 148.321C39.4393 149.934 38.7987 151.48 37.6585 152.621C36.5183 153.761 34.9718 154.401 33.3593 154.401C31.7607 154.38 30.2347 153.73 29.1118 152.592C27.9888 151.455 27.3592 149.92 27.3594 148.321C27.3801 146.736 28.0189 145.222 29.1396 144.102C30.2604 142.981 31.7744 142.342 33.3593 142.321C34.958 142.321 36.4925 142.951 37.6304 144.074C38.7684 145.197 39.4182 146.723 39.4393 148.321Z" fill="#DD3F24"/>
<path d="M109.837 179.201C109.837 180.984 109.129 182.693 107.869 183.953C106.609 185.213 104.9 185.921 103.117 185.921C102.232 185.932 101.353 185.766 100.533 185.432C99.713 185.098 98.9679 184.603 98.3418 183.977C97.7156 183.351 97.2211 182.606 96.8872 181.786C96.5533 180.966 96.3867 180.087 96.3975 179.201C96.3975 177.419 97.1055 175.71 98.3657 174.45C99.6259 173.189 101.335 172.481 103.117 172.481C104.893 172.502 106.59 173.217 107.846 174.473C109.102 175.728 109.816 177.426 109.837 179.201Z" fill="#DD3F24"/>
<path d="M100.704 64.1848L58.6709 99.0947L61.1753 102.11L103.209 67.2004L100.704 64.1848Z" fill="#DD3F24"/>
<path d="M97.1828 7.19039L55.499 42.5166L58.0334 45.5072L99.7172 10.181L97.1828 7.19039Z" fill="#DD3F24"/>
<path d="M151.841 26.7207L110.082 61.9209L107.522 58.9609L149.361 23.6807L151.841 26.7207Z" fill="#DD3F24"/>
<path d="M141.166 -17.8279L94.209 10.1094L96.2132 13.4782L143.171 -14.4591L141.166 -17.8279Z" fill="#DD3F24"/>
<path d="M104.08 63.04L116.72 116.24L112.88 117.12L100.24 63.92L104.08 63.04Z" fill="#DD3F24"/>
<path d="M170.317 120.161L115.678 118.321L115.838 114.321L170.477 116.241L170.317 120.161Z" fill="#DD3F24"/>
<path d="M56.2384 45.4483L52.3662 46.0596L60.8854 100.032L64.7576 99.4205L56.2384 45.4483Z" fill="#DD3F24"/>
<path d="M149.279 26.4435L146.865 29.5322L189.916 63.1797L192.33 60.091L149.279 26.4435Z" fill="#DD3F24"/>
<path d="M61.0079 97.1844L59.8037 100.915L111.801 117.7L113.005 113.969L61.0079 97.1844Z" fill="#DD3F24"/>
<path d="M18.615 81.1706L17.3589 84.8838L69.1167 102.393L70.3728 98.6799L18.615 81.1706Z" fill="#DD3F24"/>
<path d="M54.374 39.0589L21.2178 82.4893L24.3334 84.868L57.4897 41.4376L54.374 39.0589Z" fill="#DD3F24"/>
<path d="M95.3419 8.37062L94.1631 12.1094L146.273 28.54L147.452 24.8013L95.3419 8.37062Z" fill="#DD3F24"/>
<path d="M139.546 -20.8651L137.404 -17.582L183.166 12.2732L185.308 8.99009L139.546 -20.8651Z" fill="#DD3F24"/>
<path d="M65.9152 97.7627L82.3949 149.923L78.635 151.043L62.1553 98.9627L65.9152 97.7627Z" fill="#DD3F24"/>
<path d="M118.428 115.787L75.8579 150.04L78.3153 153.094L120.886 118.842L118.428 115.787Z" fill="#DD3F24"/>
<path d="M168.017 120.281L132.881 162.126L135.883 164.647L171.019 122.802L168.017 120.281Z" fill="#DD3F24"/>
<path d="M22.9741 29.0116L19.0542 29.0547L19.655 83.6916L23.5748 83.6485L22.9741 29.0116Z" fill="#DD3F24"/>
<path d="M149.201 27.1204L183.44 14.3203L184.8 18.0803L150.561 30.8004L149.201 27.1204Z" fill="#DD3F24"/>
<path d="M99.5215 15.8205L95.6235 16.2344L99.4747 52.5107L103.373 52.0969L99.5215 15.8205Z" fill="#DD3F24"/>
<path d="M146.541 -11.1453L142.67 -10.5273L148.421 25.4967L152.292 24.8788L146.541 -11.1453Z" fill="#DD3F24"/>
<path d="M81.8403 148.399L133.199 155.919L132.639 159.839L81.2803 152.239L81.8403 148.399Z" fill="#DD3F24"/>
<path d="M20.6817 83.2935L13.4214 119.044L17.2628 119.824L24.5232 84.0737L20.6817 83.2935Z" fill="#DD3F24"/>
<path d="M23.6642 28.0869L22.0698 31.668L55.3954 46.5058L56.9898 42.9248L23.6642 28.0869Z" fill="#DD3F24"/>
<path d="M134.582 158.809L103.342 177.646L105.366 181.003L136.606 162.166L134.582 158.809Z" fill="#DD3F24"/>
<path d="M142.88 157.601L182.64 149.841L183.44 153.761L143.68 161.441L142.88 157.601Z" fill="#DD3F24"/>
<path d="M92.9509 -26.3749L89.0918 -25.6875L95.4891 10.2275L99.3482 9.54009L92.9509 -26.3749Z" fill="#DD3F24"/>
<path d="M78.5808 148.968L50.4443 158.904L51.7496 162.601L79.8861 152.664L78.5808 148.968Z" fill="#DD3F24"/>
<path d="M85.27 150.78L82.0215 152.974L102.436 183.206L105.685 181.013L85.27 150.78Z" fill="#DD3F24"/>
<path d="M176.736 167.178L137.162 181.943L138.532 185.616L178.107 170.851L176.736 167.178Z" fill="#DD3F24"/>
<path d="M38.9805 -8.54701L13.3433 23.5L16.4041 25.9488L42.0414 -6.09823L38.9805 -8.54701Z" fill="#DD3F24"/>
<path d="M12.8842 23.1979L3.75 67.3838L7.58881 68.1774L16.723 23.9915L12.8842 23.1979Z" fill="#DD3F24"/>
<path d="M6.51134 69.307L2.65625 70.0166L10.8244 114.391L14.6795 113.682L6.51134 69.307Z" fill="#DD3F24"/>
<path d="M16.017 116.572L12.6953 118.653L31.9368 149.363L35.2585 147.282L16.017 116.572Z" fill="#DD3F24"/>
<path d="M35.7668 145.985L33.4688 149.161L49.5417 160.792L51.8398 157.616L35.7668 145.985Z" fill="#DD3F24"/>
<path d="M56.5606 160.224L54.1787 163.337L78.0679 181.615L80.4498 178.502L56.5606 160.224Z" fill="#DD3F24"/>
<path d="M108.054 177.518L77.9751 177.712L78.0004 181.632L108.079 181.438L108.054 177.518Z" fill="#DD3F24"/>
<path d="M53.3223 159.115L52.1162 162.845L101.441 178.795L102.647 175.066L53.3223 159.115Z" fill="#DD3F24"/>
<path d="M98.0167 176.75L97.272 180.592L125.966 186.155L126.711 182.313L98.0167 176.75Z" fill="#DD3F24"/>
<path d="M117.28 62.6421C117.28 64.6764 116.878 66.6908 116.097 68.5694C115.316 70.4479 114.172 72.1535 112.73 73.5883C111.287 75.0231 109.576 76.1588 107.694 76.93C105.811 77.7012 103.795 78.0928 101.76 78.0822C99.7259 78.0928 97.7097 77.7012 95.8272 76.93C93.9448 76.1588 92.2331 75.0231 90.7909 73.5883C89.3487 72.1535 88.2045 70.4479 87.4236 68.5694C86.6426 66.6908 86.2407 64.6764 86.2407 62.6421C86.2407 58.5259 87.8758 54.5783 90.7863 51.6678C93.6968 48.7572 97.6442 47.1221 101.76 47.1221C105.876 47.1221 109.824 48.7572 112.734 51.6678C115.645 54.5783 117.28 58.5259 117.28 62.6421Z" fill="#8F8E8E"/>
<path d="M160.879 28.8815C160.879 30.4258 160.574 31.9549 159.983 33.3817C159.392 34.8085 158.526 36.105 157.434 37.1971C156.342 38.2891 155.046 39.1553 153.619 39.7463C152.192 40.3373 150.663 40.6414 149.119 40.6414C147.568 40.652 146.03 40.3556 144.594 39.7693C143.158 39.1831 141.852 38.3185 140.751 37.2254C139.651 36.1323 138.778 34.8323 138.182 33.4003C137.586 31.9682 137.279 30.4326 137.279 28.8815C137.279 27.3303 137.586 25.7945 138.182 24.3625C138.778 22.9305 139.651 21.6305 140.751 20.5374C141.852 19.4443 143.158 18.5797 144.594 17.9934C146.03 17.4072 147.568 17.1108 149.119 17.1214C150.663 17.1214 152.192 17.4255 153.619 18.0165C155.046 18.6075 156.342 19.4737 157.434 20.5657C158.526 21.6577 159.392 22.9543 159.983 24.3811C160.574 25.8079 160.879 27.3371 160.879 28.8815Z" fill="#DD3F24"/>
<path d="M42.4199 -11.7483L21.1797 26.6025L24.6088 28.5018L45.8491 -9.84903L42.4199 -11.7483Z" fill="#DD3F24"/>
<path d="M74.2406 98.8027C74.2407 100.291 73.9461 101.764 73.3742 103.138C72.8023 104.512 71.9643 105.759 70.9084 106.807C69.8525 107.856 68.5997 108.685 67.222 109.247C65.8442 109.809 64.3687 110.093 62.8807 110.083C61.3994 110.083 59.9327 109.791 58.5641 109.224C57.1956 108.657 55.9522 107.826 54.9048 106.779C53.8573 105.732 53.0264 104.488 52.4595 103.119C51.8926 101.751 51.6009 100.284 51.6009 98.8027C51.5903 97.3147 51.8744 95.8393 52.4365 94.4615C52.9987 93.0837 53.8277 91.8307 54.8762 90.7747C55.9247 89.7188 57.1718 88.8808 58.5456 88.3089C59.9194 87.737 61.3927 87.4426 62.8807 87.4427C64.3755 87.432 65.8575 87.7186 67.2405 88.2857C68.6236 88.8528 69.88 89.6893 70.937 90.7463C71.994 91.8033 72.8303 93.0598 73.3974 94.4428C73.9645 95.8259 74.2513 97.3079 74.2406 98.8027Z" fill="#8F8E8E"/>
<path d="M89.3591 150.961C89.3592 153.218 88.4684 155.383 86.8804 156.986C85.2924 158.589 83.1356 159.5 80.8793 159.521C78.609 159.521 76.4319 158.62 74.8266 157.014C73.2213 155.409 72.3193 153.232 72.3193 150.961C72.3404 148.705 73.2517 146.548 74.8547 144.96C76.4577 143.372 78.6228 142.481 80.8793 142.481C83.1218 142.502 85.2665 143.402 86.8523 144.988C88.4381 146.574 89.3382 148.719 89.3591 150.961Z" fill="#8F8E8E"/>
<path d="M31.2805 29.5196C31.2805 31.6413 30.4378 33.6762 28.9375 35.1765C27.4373 36.6768 25.4023 37.5196 23.2806 37.5196C21.1589 37.5196 19.1243 36.6768 17.624 35.1765C16.1237 33.6762 15.2808 31.6413 15.2808 29.5196C15.2808 27.3978 16.1237 25.363 17.624 23.8627C19.1243 22.3624 21.1589 21.5195 23.2806 21.5195C25.4023 21.5195 27.4373 22.3624 28.9375 23.8627C30.4378 25.363 31.2805 27.3978 31.2805 29.5196Z" fill="#8F8E8E"/>
<path d="M59.5967 158.561C59.5967 160.449 58.8465 162.26 57.5113 163.596C56.176 164.931 54.3652 165.681 52.4769 165.681C51.5457 165.681 50.6234 165.496 49.7641 165.138C48.9047 164.779 48.1252 164.253 47.4704 163.591C46.8156 162.929 46.2987 162.143 45.9497 161.28C45.6006 160.416 45.4264 159.492 45.437 158.561C45.4263 157.634 45.6009 156.713 45.9509 155.854C46.3009 154.995 46.8192 154.215 47.475 153.559C48.1309 152.903 48.9112 152.385 49.7702 152.035C50.6291 151.685 51.5494 151.51 52.4769 151.521C53.4081 151.51 54.332 151.685 55.1954 152.034C56.0588 152.383 56.8444 152.9 57.5066 153.555C58.1688 154.209 58.6944 154.989 59.0532 155.848C59.412 156.708 59.5967 157.63 59.5967 158.561Z" fill="#8F8E8E"/>
</g>
<defs>
<clipPath id="clip0_718_11701">
<rect width="232.156" height="237.602" fill="white" transform="translate(0 -46)"/>
</clipPath>
</defs>
</svg>
